<?xml version="1.0" encoding="utf-8"?>
<!-- Generator: Adobe Illustrator 15.0.0, SVG Export Plug-In . SVG Version: 6.00 Build 0)  -->
<!DOCTYPE svg PUBLIC "-//W3C//DTD SVG 1.1//EN" "http://www.w3.org/Graphics/SVG/1.1/DTD/svg11.dtd">
<svg version="1.1" id="Layer_1" xmlns="http://www.w3.org/2000/svg" xmlns:xlink="http://www.w3.org/1999/xlink" x="0px" y="0px"
	 width="1000px" height="1000px" viewBox="0 0 1000 1000" enable-background="new 0 0 1000 1000" xml:space="preserve">
<circle fill="#FAEECD" cx="499" cy="499.75" r="447.895"/>
<path fill="#E5BB67" d="M51.105,636.117h905.718c0,0-147.058,343.647-444.117,333.354C149.471,966.53,51.105,636.117,51.105,636.117
	z"/>
<g>
	<polygon fill="#DBDBDB" points="688.758,689.526 356.406,731.471 356.406,418.236 688.758,380.611 	"/>
</g>
<g>
	<path fill="#AED8EB" d="M656.406,655.96c0,6.537-5.373,12.522-12,13.37l-243.648,31.192c-6.627,0.849-12-3.835-12-10.464V458.177
		c0-6.627,5.373-12.617,12-13.378l243.648-27.979c6.627-0.761,12,3.92,12,10.457V655.96z"/>
</g>
<g>
	<polygon fill="#999999" points="293.17,704.622 356.406,731.471 356.406,418.236 293.17,398.099 	"/>
</g>
<polygon fill="#FFFFFF" points="293.17,397.647 356.406,418.236 688.758,380 632.877,353.53 "/>
<polygon fill="#DBDBDB" points="349.471,763.589 728.883,716.529 743.588,763.589 356.406,820.941 "/>
<polygon fill="#DBDBDB" points="356.406,731.471 349.471,763.589 261.235,716.529 293.17,702.059 "/>
<polygon fill="#999999" points="261.235,716.529 236.235,745.941 356.406,820.941 349.471,763.589 "/>
<path fill="#4C4B48" stroke="#4C4B48" stroke-miterlimit="10" d="M499.75,0c-276.143,0-500,223.857-500,500s223.857,500,500,500
	s500-223.857,500-500S775.893,0,499.75,0z M499,947.917C251.622,947.917,51.083,747.378,51.083,500
	C51.083,252.623,251.622,52.083,499,52.083S946.916,252.623,946.916,500C946.916,747.378,746.377,947.917,499,947.917z"/>
<g>
	<g>
		<path fill="#575957" d="M273.95,745.076c-15.229-6.073-30.411-11.396-46.369-4.72c-12.832,5.368-22.111,16.118-36.609,17.525
			c-7.724,0.75-15.658-1.075-22.431-4.757c-4.261-2.316-8.104-5.318-12.38-7.61c-10.611-5.688-21.318-3.15-31.595,2.094
			c-1.91,0.975,2.512,2.994,3.812,2.33c5.667-2.892,11.704-5.511,18.192-5.228c4.667,0.204,8.8,3.135,12.567,5.598
			c9.304,6.082,18.442,9.697,29.655,10.251c12.824,0.634,22.699-5.803,32.949-12.523c6.485-4.252,13.341-7.549,21.139-8.376
			c9.979-1.06,20.142,3.547,29.17,7.146C274.129,747.636,277.104,746.334,273.95,745.076L273.95,745.076z"/>
	</g>
</g>
<polygon fill="#999999" points="388.758,838.589 743.588,790.06 780.353,838.589 377.71,903.295 "/>
<polygon fill="#DBDBDB" points="388.758,838.589 371.529,846.678 362.706,910.647 377.71,903.295 "/>
<polygon fill="#CBCBCB" points="362.706,910.647 773,846.678 780.353,838.589 377.71,903.295 "/>
<g>
	<g>
		<path fill="#575957" d="M730.675,718.369c12.489,2.387,25.374,1.364,37.927,3.351c5.679,0.898,12.3,2.409,16.332,6.843
			c4.78,5.257,3.65,13.121,1.983,19.381c-4.161,15.618-20.945,20.002-34.633,23.309c-13.411,3.241-27.698,7.044-34.333,20.402
			c-0.982,1.979,3.274,4.584,4.215,2.691c7.576-15.257,25.233-17.287,40.032-21.2c15.772-4.17,28.57-12.711,30.558-30.085
			c3.626-31.713-44.066-24.806-62.726-28.371C726.803,714.073,728.458,717.945,730.675,718.369L730.675,718.369z"/>
	</g>
</g>
<polygon fill="#FFFFFF" points="356.406,731.471 349.471,763.589 728.883,716.529 688.758,687.305 "/>
<g>
	<path fill="#4C4B48" d="M284.765,160.648c33.824-2.941,54.412,36.765,54.412,64.706c0,36.765-26.47,52.941-35.294,85.294
		c-16.176,51.47,29.412,48.529,41.176,91.176c25-16.176-14.706-45.588-19.117-63.235c-4.412-26.471,13.235-44.118,23.529-63.235
		c27.941-51.47-4.412-116.176-64.706-116.176"/>
	<g>
		<path fill="#4C4B48" d="M284.765,162.148c23.077-1.648,39.491,16.558,47.471,36.407c8.784,21.849,5.926,44.37-5.376,64.697
			c-10.811,19.442-24.292,36.829-27.352,59.601c-2.239,16.67,4.316,28.952,15.983,40.284c12.013,11.668,23.351,22.426,28.121,39.086
			c0.253,0.883,1.386,1.45,2.203,0.896c15.683-10.622,6.562-26.969-2.081-39.141c-5.052-7.114-10.882-13.86-14.813-21.698
			c-5.486-10.942-1.005-25.74,3.931-36.041c5.057-10.552,12.307-19.882,17.914-30.129c4.934-9.019,8.13-18.89,9.577-29.057
			c2.675-18.798-1.507-38.213-11.456-54.345c-13.751-22.298-38.204-34.822-64.123-35.031c-1.935-0.016-1.934,2.984,0,3
			c21.603,0.174,41.593,8.951,55.662,25.454c13.31,15.613,19.036,36.643,17.377,56.891c-0.906,11.061-4.427,21.815-9.628,31.574
			c-5.503,10.324-12.677,19.645-17.913,30.129c-5.017,10.047-7.704,21.396-6.015,32.619c1.179,7.834,6.968,14.657,11.531,20.835
			c8.333,11.281,25.457,30.881,8.523,42.349c0.734,0.299,1.469,0.598,2.203,0.896c-4.904-17.126-16.451-28.437-28.892-40.41
			c-5.498-5.291-10.672-11.03-13.481-18.234c-3.612-9.262-2.198-19.497,0.332-28.825c3.165-11.67,8.395-22.126,14.712-32.379
			c5.579-9.054,11.624-17.919,15.7-27.793c8.109-19.641,7.116-40.473-1.325-59.787c-8.569-19.608-26.141-36.467-48.786-34.85
			C282.847,159.285,282.833,162.286,284.765,162.148L284.765,162.148z"/>
	</g>
</g>
<g>
	<path fill="#4C4B48" d="M437.706,95.942c25,13.235,39.706,51.471,44.117,77.941c5.883,33.823-8.823,57.353-19.117,89.706
		c-13.235,47.059-10.294,75,17.647,111.765c-11.765-25-17.647-58.823-5.882-86.765c10.294-27.941,26.471-38.235,27.941-69.118
		c2.94-42.647-22.059-97.059-58.824-119.118"/>
	<g>
		<path fill="#4C4B48" d="M436.949,97.237c20.748,11.35,31.973,35.583,38.698,57.191c3.692,11.864,6.154,24.243,6,36.699
			c-0.17,13.753-4.219,27.067-8.809,39.905c-8.899,24.891-18.423,49.283-19.205,76.074c-0.653,22.397,7.343,42.836,19.753,61.159
			c1.81,2.672,3.729,5.269,5.671,7.845c1.159,1.537,3.415,0.265,2.591-1.514c-12.006-25.921-16.771-56.813-6.367-84.051
			c8.375-21.925,24.722-40.264,28.001-64.019c3.146-22.791-1.9-46.395-10.641-67.416c-8.56-20.586-21.775-40.433-39.623-54.095
			c-2.793-2.138-5.671-4.125-8.673-5.958c-1.656-1.011-3.162,1.584-1.515,2.591c20.616,12.593,35.343,32.942,45.312,54.605
			c10.259,22.293,15.679,48.119,11.787,72.57c-1.838,11.548-7.187,21.763-13.029,31.727c-6.118,10.434-11.602,20.93-15.677,32.347
			c-9.027,25.29-4.38,54.418,5.777,78.607c0.651,1.55,1.349,3.079,2.055,4.604c0.864-0.504,1.727-1.009,2.591-1.514
			c-14.514-19.25-24.833-40.318-25.043-64.824c-0.234-27.298,9.994-52.736,19.125-77.943c4.395-12.132,7.901-24.51,8.784-37.432
			c0.821-12.016-1.393-24.033-4.481-35.597c-5.608-21.001-15.377-42.972-32.01-57.545c-2.922-2.561-6.157-4.746-9.561-6.608
			C436.765,93.718,435.251,96.309,436.949,97.237L436.949,97.237z"/>
	</g>
</g>
<g>
	<path fill="#4C4B48" d="M580.353,372.413c-36.765-36.765-11.765-73.53,2.941-113.235c7.354-23.529-7.353-104.412,22.059-102.941
		C574.471,170.942,598,225.354,598,251.824c0,41.176-35.026,71.744-23.262,114.391"/>
	<g>
		<path fill="#4C4B48" d="M581.413,371.352c-10.006-10.214-17.147-22.291-18.486-36.718c-1.115-12.021,2.123-24.042,6.017-35.295
			c4.158-12.014,9.512-23.585,14.146-35.416c2.576-6.579,3.444-13.019,3.82-20.049c0.925-17.255-0.143-34.556,0.974-51.812
			c0.657-10.154,1.622-32.831,15.503-34.298c0.653-0.069,1.312-0.047,1.967-0.028c-0.252-0.932-0.505-1.863-0.757-2.795
			c-14.38,7.177-17.187,22.875-16.565,37.586c0.756,17.914,6.213,35.185,8.11,52.947c2.229,20.862-6.562,40.502-14.299,59.323
			c-8.213,19.975-14.227,40.284-8.55,61.818c0.492,1.869,3.387,1.075,2.893-0.798c-11.118-42.173,25.588-76.058,23.193-117.518
			c-0.946-16.391-5.957-32.376-7.782-48.68c-1.725-15.404-1.263-34.213,14.514-42.087c1.397-0.697,0.653-2.755-0.757-2.795
			c-12.716-0.367-17.015,13.087-18.875,23.383c-3.038,16.817-2.175,34.277-2.244,51.283c-0.031,7.552-0.092,15.149-1.007,22.655
			c-1.199,9.851-6.279,19.172-10.042,28.234c-8.741,21.054-17.889,44.038-10.782,66.928c3.134,10.096,9.576,18.789,16.89,26.254
			C580.647,374.857,582.768,372.734,581.413,371.352L581.413,371.352z"/>
	</g>
</g>
<circle opacity="0" fill="#67696A" cx="503.215" cy="499.5" r="447.895"/>
<path opacity="0.45" fill="#262726" d="M500,0C223.857,0,0,223.857,0,500c0,276.143,223.857,500,500,500
	c276.143,0,500-223.857,500-500C1000,223.857,776.143,0,500,0z M499.25,947.916C251.872,947.916,51.333,747.377,51.333,500
	S251.872,52.083,499.25,52.083c247.377,0,447.916,200.539,447.916,447.917S746.627,947.916,499.25,947.916z"/>
<path opacity="0.75" fill="#53B134" d="M175.464,606.375c17.258-31.793,89.062-164.063,89.062-164.063s184.375,57.812,225,173.438
	c6.25-68.75,106.25-404.688,176.563-454.688c82.812,56.25,162.5,123.438,162.5,123.438S557.965,540.75,501.715,831.375
	C417.339,754.812,403.589,587.625,175.464,606.375z"/>
</svg>
