<?xml version="1.0" encoding="utf-8"?>
<!-- Generator: Adobe Illustrator 15.0.0, SVG Export Plug-In . SVG Version: 6.00 Build 0)  -->
<!DOCTYPE svg PUBLIC "-//W3C//DTD SVG 1.1//EN" "http://www.w3.org/Graphics/SVG/1.1/DTD/svg11.dtd">
<svg version="1.1" id="Layer_1" xmlns="http://www.w3.org/2000/svg" xmlns:xlink="http://www.w3.org/1999/xlink" x="0px" y="0px"
	 width="1000px" height="1000px" viewBox="0 0 1000 1000" enable-background="new 0 0 1000 1000" xml:space="preserve">
<circle fill="#F9DF9A" cx="500" cy="499.75" r="447.895"/>
<path fill="#935B0F" d="M500.75,0c-276.143,0-500,223.857-500,500s223.857,500,500,500s500-223.857,500-500S776.893,0,500.75,0z
	 M500,947.917C252.622,947.917,52.083,747.378,52.083,500C52.083,252.623,252.622,52.083,500,52.083S947.916,252.623,947.916,500
	C947.916,747.378,747.377,947.917,500,947.917z"/>
<path fill="#9E947C" d="M151.444,413.071c7.276,16.682,22.252,25.71,37.635,25.275c13.51-0.382,27.335-8.064,36.531-24.275
	c8.019-14.135,2.375-40.986,1.75-45.5s-12.002-73.701-12.002-73.701s-5.748,57.358-5.748,61.592s-4.583,4.399-5,0
	s-8.09-73.93-8.09-73.93s-7.489,66.039-7.637,69.039s-3.525,3.684-4.023,0.5s-4.25-67.25-4.25-67.25s-12.375,69.25-12.75,72
	s-3.447,2.982-4-0.359s-0.25-60.391-0.25-60.391s-15.875,70.25-16,73S144.38,396.875,151.444,413.071z"/>
<path fill="#9E947C" d="M177.134,435.991c4.477-11.919,17.557-12.146,23.409,0c-7.932,20.081,15.568,223.413,15.568,257.081
	s-41.954,30-38.977,0S186.611,468.071,177.134,435.991z"/>
<path fill="#9E947C" d="M795.301,436.919c4.477-11.919,17.557-12.146,23.408,0C810.777,457,834.277,660.332,834.277,694
	s-41.954,30-38.977,0C798.277,664,804.777,469,795.301,436.919z"/>
<path fill="#9E947C" d="M795.301,436.919h27.147c0,0,18.833-176.419-27.299-200.419c-3.854-2.004-4.701,21.477-4.701,35.167
	C790.448,307,795.301,436.919,795.301,436.919z"/>
<circle fill="#FFFFFF" cx="510.25" cy="474.091" r="260.987"/>
<g>
	<path fill="#E5E0D2" d="M724.818,478.331c0.046,28.089-5.391,56.18-15.911,82.284c-10.493,26.121-26.235,50.168-46.002,70.371
		c-19.741,20.219-43.596,36.546-69.779,47.429c-26.15,10.98-54.543,16.479-82.89,16.315c-28.301-0.179-56.571-5.999-82.554-17.061
		c-12.998-5.521-25.435-12.325-37.081-20.268c-11.665-7.916-22.547-16.962-32.472-26.952
		c-19.845-19.975-35.889-43.743-46.746-69.749c-2.715-6.499-5.108-13.134-7.168-19.871c-2.082-6.73-3.844-13.563-5.258-20.47
		c-2.834-13.816-4.295-27.905-4.396-42.039c-0.223-28.206,5.027-56.584,15.802-82.786c10.693-26.225,26.652-50.32,46.677-70.415
		c19.99-20.123,43.965-36.305,70.177-47.251c26.198-10.993,54.638-16.544,83.033-16.525c28.392,0.071,56.809,5.652,82.956,16.708
		c26.181,10.964,50.016,27.33,69.754,47.568c19.752,20.229,35.494,44.282,45.985,70.41
		C719.465,422.141,724.887,450.237,724.818,478.331z M724.318,478.329c-0.045-14.011-1.411-28.022-4.196-41.749
		c-2.819-13.714-6.934-27.17-12.46-40.019c-10.98-25.726-27.088-49.176-47.029-68.615c-9.961-9.731-20.878-18.446-32.479-26.085
		c-5.807-3.812-11.797-7.337-17.943-10.56c-6.135-3.242-12.428-6.182-18.849-8.802c-12.848-5.227-26.185-9.236-39.788-11.893
		c-13.604-2.657-27.467-3.961-41.324-3.93c-13.857,0.026-27.713,1.339-41.304,4.031c-13.592,2.685-26.912,6.719-39.732,11.975
		c-25.642,10.526-49.169,26.192-68.847,45.763c-19.67,19.573-35.56,42.98-46.338,68.609c-5.383,12.813-9.519,26.157-12.341,39.784
		c-2.812,13.635-4.272,27.541-4.388,41.499c-0.179,27.85,4.985,55.869,15.708,81.688c5.317,12.92,11.918,25.314,19.665,36.95
		c7.737,11.645,16.717,22.451,26.604,32.326c9.918,9.848,20.816,18.699,32.469,26.391c11.669,7.666,24.082,14.179,37.003,19.404
		c25.845,10.485,53.699,15.687,81.514,15.47c13.871-0.058,27.764-1.5,41.376-4.186c13.616-2.709,26.955-6.771,39.803-12.029
		c6.421-2.639,12.712-5.597,18.844-8.856c6.145-3.235,12.134-6.773,17.937-10.598c11.59-7.668,22.509-16.389,32.465-26.132
		c19.928-19.466,36.033-42.92,47.013-68.653c5.527-12.852,9.636-26.312,12.451-40.029
		C722.929,506.354,724.283,492.343,724.318,478.329z"/>
</g>
<circle opacity="0" fill="#67696A" cx="499.25" cy="499.75" r="447.895"/>
<path opacity="0.45" fill="#262726" d="M500,0C223.857,0,0,223.857,0,500s223.857,500,500,500s500-223.857,500-500S776.143,0,500,0z
	 M499.25,947.917C251.872,947.917,51.333,747.378,51.333,500c0-247.377,200.539-447.917,447.917-447.917
	S947.166,252.623,947.166,500C947.166,747.378,746.627,947.917,499.25,947.917z"/>
<path opacity="0.75" fill="#53B134" d="M171.5,606.625c17.258-31.792,89.062-164.062,89.062-164.062s184.375,57.812,225,173.438
	c6.25-68.75,106.25-404.688,176.562-454.688c82.812,56.25,162.5,123.438,162.5,123.438S554,541,497.75,831.625
	C413.375,755.062,399.625,587.875,171.5,606.625z"/>
</svg>
