<?xml version="1.0" encoding="utf-8"?>
<!-- Generator: Adobe Illustrator 15.0.0, SVG Export Plug-In . SVG Version: 6.00 Build 0)  -->
<!DOCTYPE svg PUBLIC "-//W3C//DTD SVG 1.1//EN" "http://www.w3.org/Graphics/SVG/1.1/DTD/svg11.dtd">
<svg version="1.1" id="Layer_1" xmlns="http://www.w3.org/2000/svg" xmlns:xlink="http://www.w3.org/1999/xlink" x="0px" y="0px"
	 width="1000px" height="1000px" viewBox="0 0 1000 1000" enable-background="new 0 0 1000 1000" xml:space="preserve">
<circle fill="#1D4A16" cx="500" cy="499.75" r="447.895"/>
<g>
	<path fill="#D4BA7D" d="M455.219,433.057c6.747-20.844,83.715-70.842,105.013-67.913c21.296,2.931,228.508,393.379,325.118,410.401
		c-35.417,52.643-49.434,132.791-109.371,119.127C700.503,717.679,448.472,453.903,455.219,433.057z"/>
	<g>
		<path fill="#D4BA7D" d="M457.374,434.324c1.833-5.32,5.993-9.748,9.832-13.71c6.067-6.263,12.911-11.774,19.857-17.022
			c15.049-11.37,31.31-21.525,48.404-29.525c6.448-3.018,13.242-5.874,20.284-7.135c1.178-0.211,2.368-0.327,3.562-0.381
			c0.371-0.017,2.611,0.215,1.877,0.026c0.077,0.02-0.639-0.458,0.267,0.231c3.214,2.447,6.929,7.581,9.745,11.34
			c12.83,17.122,24.209,35.383,35.738,53.387c16.8,26.237,33.4,52.603,50.237,78.817c38.194,59.465,77.143,118.833,121.303,174.092
			c17.814,22.291,36.596,44.19,57.962,63.183c14.135,12.562,30.958,25.938,50.08,29.412c-1.109-0.92-2.219-1.84-3.328-2.761
			c-17.495,26.197-28.356,56.019-44.574,82.935c-6.844,11.358-15.028,22.457-26.176,29.917c-11.275,7.545-24.59,8.904-37.639,6.05
			c1.095,0.72,2.189,1.44,3.284,2.161c-15.473-36.164-35.285-70.38-56.311-103.561c-23.506-37.095-48.943-72.945-75.15-108.171
			c-47.115-63.331-97.404-124.137-146.396-185.998c-11.015-13.909-22.062-27.856-32.175-42.443
			c-3.003-4.332-5.949-8.742-8.393-13.419C458.664,439.833,456.716,436.554,457.374,434.324c0.451-1.53-3.992-3.615-4.311-2.534
			c-1.078,3.658,2.231,8.491,3.935,11.447c4.341,7.534,9.52,14.606,14.672,21.597c17.428,23.644,36.089,46.395,54.5,69.271
			c52.99,65.846,105.947,131.812,154.435,201.089c24.519,35.032,47.95,70.937,68.524,108.446
			c8.997,16.402,17.377,33.16,24.738,50.363c1.203,2.812,6.699,2.873,9.09,3.215c4.376,0.625,8.835,0.661,13.226,0.194
			c7.888-0.838,15.284-3.982,21.756-8.484c16.52-11.493,26.618-30.945,35.558-48.386c10.984-21.429,20.595-43.646,34.009-63.73
			c0.782-1.172-2.643-2.637-3.328-2.761c-19.432-3.531-36.331-18.681-50.267-31.677c-21.965-20.483-41.249-43.834-59.685-67.478
			c-43.697-56.042-82.536-115.822-120.794-175.646c-16.216-25.357-32.234-50.842-48.537-76.144
			c-10.58-16.419-21.002-33.206-33.149-48.534c-2.8-3.533-5.847-7.503-9.807-9.813c-7.73-4.509-20.604,2.095-27.649,5.183
			c-17.148,7.516-33.289,17.71-48.382,28.724c-11.302,8.248-25.147,18.052-31.839,30.746c-0.402,0.763-0.723,1.562-1.004,2.376
			C452.553,433.271,456.988,435.443,457.374,434.324z"/>
	</g>
</g>
<g>
	<path fill="#B29760" d="M742.838,709.871c9.172,9.918,17.789,20.248,26.212,30.723c8.456,10.449,16.632,21.107,24.652,31.881
		c8.007,10.784,15.848,21.69,23.412,32.803c7.598,11.088,14.995,22.323,21.835,33.974c-9.179-9.913-17.8-20.24-26.221-30.716
		c-8.454-10.451-16.632-21.108-24.644-31.888c-7.998-10.79-15.841-21.695-23.403-32.809
		C757.086,732.75,749.685,721.517,742.838,709.871z"/>
</g>
<path fill="#F1BD1D" d="M500.75,0c-276.143,0-500,223.857-500,500s223.857,500,500,500s500-223.857,500-500S776.893,0,500.75,0z
	 M500,947.917C252.622,947.917,52.083,747.378,52.083,500C52.083,252.623,252.622,52.083,500,52.083S947.916,252.623,947.916,500
	C947.916,747.378,747.377,947.917,500,947.917z"/>
<path fill="#938D7F" d="M209.855,416.594c0,0,40.498,67.497,55.497,67.497s53.998-33.749,53.998-33.749s5.25-62.747,82.496-54.747
	c36.749,12.999,53.374,37.462,53.374,37.462S562,369,562,364s-26.069-34.758-33.582-61.899
	c-2.34-24.599,86.417-116.495,219.91-35.499c4.5-12,11.999-27.61,11.999-27.61s-119.993-102.883-286.485-51.886
	c-109.495,28.499-101.24,21.856-145.493,59.997c22.499,37.498-41.998,111.807-91.496,81.402
	c-37.498,10.093-50.998,31.092-50.998,31.092L209.855,416.594z"/>
<g>
	<path fill="#B29760" d="M500,443.092c4.671,3.857,8.782,8.13,12.724,12.529c3.92,4.416,7.619,8.995,11.13,13.713
		c3.512,4.718,6.826,9.583,9.922,14.61c3.075,5.043,5.977,10.214,8.313,15.806c-4.679-3.852-8.791-8.123-12.731-12.523
		c-3.919-4.416-7.619-8.994-11.122-13.719c-3.504-4.724-6.819-9.588-9.915-14.616C505.247,453.848,502.344,448.678,500,443.092z"/>
</g>
<g>
	<path fill="#B29760" d="M627.203,499.75c6.487,6.302,12.415,13.021,18.173,19.865c5.736,6.86,11.252,13.885,16.579,21.049
		c5.328,7.163,10.459,14.474,15.371,21.945c4.892,7.488,9.609,15.105,13.763,23.142c-6.495-6.297-12.424-13.014-18.181-19.859
		c-5.735-6.86-11.252-13.885-16.571-21.055c-5.32-7.169-10.452-14.478-15.364-21.951
		C636.083,515.396,631.363,507.781,627.203,499.75z"/>
</g>
<g>
	<path fill="#B29760" d="M654.832,650.533c6.487,6.302,12.415,13.021,18.173,19.864c5.736,6.86,11.252,13.885,16.579,21.049
		c5.328,7.164,10.459,14.474,15.371,21.946c4.892,7.487,9.609,15.104,13.763,23.141c-6.495-6.297-12.424-13.014-18.181-19.859
		c-5.735-6.86-11.252-13.884-16.571-21.054c-5.32-7.169-10.452-14.479-15.364-21.951
		C663.713,666.18,658.992,658.564,654.832,650.533z"/>
</g>
<g>
	<path fill="#B29760" d="M778.296,715.201c5.482,4.949,10.404,10.314,15.157,15.806c4.731,5.507,9.242,11.179,13.563,16.989
		c4.323,5.811,8.449,11.768,12.356,17.887c3.887,6.135,7.6,12.398,10.747,19.082c-5.489-4.943-10.414-10.308-15.165-15.8
		c-4.73-5.508-9.241-11.179-13.556-16.995c-4.315-5.816-8.442-11.772-12.349-17.893
		C785.166,728.142,781.451,721.879,778.296,715.201z"/>
</g>
<g>
	<path fill="#B29760" d="M528.418,443.093c11.562,13.136,22.57,26.683,33.383,40.375c10.847,13.667,21.412,27.542,31.823,41.534
		c10.396,14.001,20.628,28.126,30.582,42.455c9.987,14.306,19.776,28.759,29.006,43.627c-11.569-13.131-22.58-26.676-33.391-40.369
		c-10.845-13.669-21.413-27.543-31.815-41.54c-10.388-14.008-20.621-28.13-30.573-42.462
		C547.446,472.407,537.655,457.956,528.418,443.093z"/>
</g>
<g>
	<path fill="#B29760" d="M654.832,563.998c9.517,10.382,18.478,21.175,27.244,32.113c8.801,10.912,17.321,22.034,25.686,33.271
		c8.351,11.248,16.536,22.618,24.444,34.193c7.942,11.551,15.685,23.25,22.868,35.364c-9.523-10.376-18.488-21.167-27.253-32.106
		c-8.799-10.915-17.32-22.035-25.677-33.277c-8.343-11.254-16.529-22.622-24.436-34.2
		C669.769,587.804,662.022,576.106,654.832,563.998z"/>
</g>
<g>
	<path fill="#B29760" d="M532.414,405.241c7.381,7.505,14.202,15.426,20.854,23.473c6.629,8.063,13.038,16.29,19.259,24.657
		c6.222,8.366,12.247,16.878,18.053,25.554c5.784,8.69,11.396,17.51,16.442,26.749c-7.389-7.5-14.211-15.419-20.861-23.467
		c-6.629-8.064-13.038-16.29-19.251-24.663c-6.214-8.372-12.239-16.884-18.045-25.559
		C543.081,423.293,537.468,414.475,532.414,405.241z"/>
</g>
<path fill="#6C6C6A" d="M185.856,359.597c0,0,98.041,117.438,79.491,123.968C242.333,491.667,178.778,367.382,185.856,359.597z"/>
<path fill="#6C6C6A" d="M473.092,421.771c0,0-45.545-47.058-110.485-23.247c80.635,3.174,86.227,34.977,90.643,36.227"/>
<path fill="#6C6C6A" d="M627.203,236.986c0,0,72.407-21.343,124.436,21.335c-1.305,4.678-0.982,3.381-3.311,8.28
	C743.097,262.458,671.75,230.25,627.203,236.986z"/>
<polygon fill="#6C6C6A" points="328.349,247.103 334.528,241.781 417.85,241.781 "/>
<polygon fill="#6C6C6A" points="417.85,241.781 463.667,213.667 468.333,213.667 "/>
<polygon fill="#6C6C6A" points="548.579,374.694 506.333,291 553.864,371.013 "/>
<path fill="#938D7F" d="M216.446,602.998c0,0,0,0,2.054,4.502c7,1.5,46-18,47.5-21.75c-2.152-4.129-2.152-4.129-2.152-4.129
	L216.446,602.998z"/>
<ellipse transform="matrix(0.9116 -0.4111 0.4111 0.9116 -222.2664 151.0897)" fill="#6C6C6A" cx="240.147" cy="592.31" rx="26" ry="4"/>
<polygon fill="#938D7F" points="241.223,600.037 248.519,596.537 322.952,740.439 324.833,754 314.5,744 "/>
<polygon fill="#6C6C6A" points="322.952,740.439 320,743 324.833,754 "/>
<path fill="#6C6C6A" d="M241.223,600.037c0,0,7.022-3.088,7.296-3.5c0.357,0.322,0.545,1.055,0.545,1.055l-7.394,3.324
	L241.223,600.037z"/>
<path fill="#938D7F" d="M490.226,757.036c0,0,0,0-3.278-2.112c-5.282,1.983-22.859,31.509-22.259,34.635
	c3.184,1.824,3.184,1.824,3.184,1.824L490.226,757.036z"/>
<ellipse transform="matrix(-0.5455 0.8381 -0.8381 -0.5455 1389.2451 794.9952)" fill="#6C6C6A" cx="479.049" cy="774.209" rx="20.49" ry="3.151"/>
<polygon fill="#938D7F" points="475.048,769.54 471.697,774.965 361.104,711.166 354.087,702.971 365.196,705.209 "/>
<polygon fill="#6C6C6A" points="361.104,711.166 361.973,708.212 354.087,702.971 "/>
<path fill="#6C6C6A" d="M475.048,769.54c0,0-3.345,5.036-3.352,5.425c-0.373-0.061-0.811-0.467-0.811-0.467l3.492-5.35
	L475.048,769.54z"/>
<path fill="#938D7F" d="M355.065,505.396c0,0,0,0-1.296,4.683c4.319,5.546,45.962,15.489,49.457,13.615
	c0.987-4.464,0.987-4.464,0.987-4.464L355.065,505.396z"/>
<ellipse transform="matrix(0.9626 0.2709 -0.2709 0.9626 153.0123 -83.6992)" fill="#6C6C6A" cx="379.639" cy="512.313" rx="25.529" ry="3.927"/>
<polygon fill="#938D7F" points="375.571,518.805 383.268,520.776 348.442,675.995 341.301,687.383 339.837,673.34 "/>
<polygon fill="#6C6C6A" points="348.442,675.995 344.606,676.059 341.301,687.383 "/>
<path fill="#6C6C6A" d="M375.571,518.805c0,0,7.231,2.108,7.697,1.972c0.066,0.468-0.255,1.138-0.255,1.138l-7.66-2.166
	L375.571,518.805z"/>
</svg>
