<?xml version="1.0" encoding="utf-8"?>
<!-- Generator: Adobe Illustrator 15.0.0, SVG Export Plug-In . SVG Version: 6.00 Build 0)  -->
<!DOCTYPE svg PUBLIC "-//W3C//DTD SVG 1.1//EN" "http://www.w3.org/Graphics/SVG/1.1/DTD/svg11.dtd">
<svg version="1.1" id="Layer_1" xmlns="http://www.w3.org/2000/svg" xmlns:xlink="http://www.w3.org/1999/xlink" x="0px" y="0px"
	 width="1000px" height="1000px" viewBox="0 0 1000 1000" enable-background="new 0 0 1000 1000" xml:space="preserve">
<circle fill="#AED8D8" cx="500" cy="499.75" r="447.895"/>
<ellipse fill="#939999" cx="340.105" cy="764.892" rx="219.667" ry="41.319"/>
<ellipse fill="#939999" cx="477.406" cy="818.361" rx="202.5" ry="50"/>
<circle fill="#F3CB05" cx="525.76" cy="498.24" r="238.76"/>
<ellipse fill="#939999" cx="686.678" cy="767.072" rx="179" ry="43.5"/>
<path fill="#7A4211" d="M140.518,767.072c36.715,36.074,378.53,18.367,434.532-11.111s-86.575-228.029-199.875-222.596
	S103.802,730.998,140.518,767.072z"/>
<path fill="#DE582F" d="M500.75,0c-276.143,0-500,223.857-500,500s223.857,500,500,500s500-223.857,500-500S776.893,0,500.75,0z
	 M500,947.917C252.622,947.917,52.083,747.378,52.083,500C52.083,252.623,252.622,52.083,500,52.083S947.916,252.623,947.916,500
	C947.916,747.378,747.377,947.917,500,947.917z"/>
<g>
	<path fill="#62B62B" d="M494.544,136.572c-8.376,18.311-16.135,36.835-22.923,55.661c-3.426,9.396-6.628,18.858-9.427,28.413
		c-2.799,9.551-5.319,19.16-7.254,28.836c-1.941,9.667-3.33,19.41-3.737,29.067c-0.354,9.629,0.234,19.268,2.887,28.008
		c1.348,4.375,3.128,8.399,5.625,12.103c2.902,4.414,5.472,8.903,7.919,13.424c4.851,9.06,9.155,18.278,13.278,27.558
		c4.069,9.301,7.902,18.677,11.571,28.108c3.621,9.45,7.117,18.938,10.41,28.495c6.58,19.114,12.571,38.424,17.773,57.961
		c5.21,19.531,9.635,39.299,12.698,59.34c0.718,5.02,1.342,10.055,1.815,15.109c0.465,5.056,0.823,10.131,0.821,15.228
		c0,5.09-0.214,10.213-1.147,15.262c-0.496,2.513-1.17,5.018-2.271,7.354c-1.08,2.309-2.728,4.532-5.062,5.583
		c2.158-1.36,3.406-3.638,4.193-5.937c0.783-2.331,1.147-4.788,1.341-7.246c0.395-4.925,0.121-9.902-0.377-14.843
		c-1.037-9.889-2.884-19.707-5.108-29.436c-2.163-9.743-4.656-19.424-7.382-29.041c-2.716-9.621-5.577-19.203-8.584-28.742
		c-6.027-19.072-12.506-38.008-19.432-56.767c-3.466-9.377-7.001-18.726-10.724-27.992c-3.677-9.283-7.495-18.503-11.519-27.606
		c-3.987-9.115-8.185-18.13-12.747-26.837c-2.275-4.351-4.65-8.626-7.216-12.649c-0.712-1.096-1.487-2.391-2.145-3.615
		c-0.674-1.245-1.287-2.515-1.854-3.797c-1.136-2.565-2.039-5.199-2.782-7.846c-2.924-10.629-3.264-21.38-2.516-31.777
		c0.75-10.422,2.648-20.584,5.095-30.529c4.943-19.892,12.232-38.904,20.424-57.391c4.197-9.206,8.578-18.309,13.307-27.225
		C484.225,153.892,489.152,145.087,494.544,136.572z"/>
</g>
<g>
	<path fill="#62B62B" d="M573.764,239.855c7.169,7.084,13.952,14.554,20.563,22.176c6.614,7.624,12.931,15.508,19.092,23.533
		c12.142,16.169,23.521,33.054,32.813,51.324c4.621,9.139,8.757,18.613,11.832,28.6c3.068,9.962,5.156,20.514,4.698,31.528
		c-0.128,2.746-0.415,5.516-0.945,8.271c-0.265,1.377-0.576,2.752-0.953,4.117c-0.364,1.34-0.828,2.776-1.275,4.004
		c-1.595,4.497-2.947,9.197-4.185,13.948c-2.487,9.511-4.549,19.24-6.383,29.018c-1.872,9.775-3.518,19.618-5.013,29.49
		c-1.541,9.866-2.882,19.771-4.149,29.688c-2.528,19.835-4.58,39.743-6.162,59.683c-0.782,9.971-1.414,19.951-1.896,29.937
		c-0.492,9.984-0.743,19.977-0.659,29.957c0.022,9.979,0.432,19.962,1.646,29.83c0.627,4.926,1.48,9.838,2.973,14.548
		c0.742,2.351,1.648,4.663,2.937,6.758c1.284,2.062,3.013,4.001,5.422,4.841c-2.51-0.499-4.616-2.295-6.188-4.301
		c-1.599-2.028-2.818-4.317-3.867-6.654c-2.046-4.709-3.406-9.652-4.552-14.612c-1.148-4.966-1.941-9.991-2.626-15.021
		c-0.676-5.032-1.2-10.079-1.631-15.13c-1.524-20.217-1.66-40.475-0.979-60.677c0.673-20.207,2.166-40.369,4.277-60.474
		c1.058-10.054,2.33-20.085,3.731-30.107c1.453-10.015,3.078-20.013,4.951-29.991c1.929-9.969,4.049-19.919,6.736-29.838
		c1.368-4.956,2.861-9.908,4.696-14.862c1.599-4.17,2.428-8.492,2.757-13.058c0.618-9.113-0.978-18.636-3.488-27.939
		c-2.57-9.318-6.115-18.5-10.182-27.481c-4.062-8.993-8.68-17.788-13.556-26.464c-4.877-8.681-10.126-17.18-15.578-25.563
		C597.773,272.116,586.045,255.812,573.764,239.855z"/>
</g>
<path fill="#65B42D" d="M599.939,550.133c0,0-28.534-76.726-62.034-48.464c31.448,0.391,61.246,57.435,61.246,57.435
	L599.939,550.133z"/>
<path fill="#65B42D" d="M640.47,480.507c0,0,53.64-61.837,75.096-23.619c-29.588-10.669-77.504,32.297-77.504,32.297L640.47,480.507
	z"/>
<path fill="#65B42D" d="M650.753,349.565c0,0,46.938-54.113,65.714-20.669c-25.891-9.335-67.821,28.262-67.821,28.262
	L650.753,349.565z"/>
<path fill="#65B42D" d="M648.08,421.265c0,0-17.094-80.055-54.342-56.956c31.059,4.951,52.26,65.717,52.26,65.717L648.08,421.265z"
	/>
<path fill="#65B42D" d="M604.863,277.635c0,0-47.56-28.454-53.291,0.661c16.779-13.109,56.674,4.412,56.674,4.412L604.863,277.635z"
	/>
<path fill="#65B42D" d="M597.051,266.57c0,0,14.305-42.33,33.047-27.461c-17.151,0.73-32.47,32.343-32.47,32.343L597.051,266.57z"/>
<path fill="#65B42D" d="M598.446,563.876c0,0,37.062-72.989,67.138-41.106c-31.29-3.184-67.373,50.107-67.373,50.107
	L598.446,563.876z"/>
<path fill="#65B42D" d="M596.008,607.887c0,0,27.016-40.163,35.642-21.905c-13.352-2.26-37.06,26.927-37.06,26.927L596.008,607.887z
	"/>
<ellipse fill="#DE582F" cx="651.249" cy="627.857" rx="174.286" ry="166.429"/>
<path fill="#BA371B" d="M463.252,581.223c0,0,83.337,200.563,116.415,204.803c12.23,1.567,29.333,15.643,98.791,1.701
	c-20.791-6.299-24.747-1.929-46.349-31.98c-24.232-33.715-21.667-94.333-39-116.332C551.954,587.18,463.252,581.223,463.252,581.223
	z"/>
<ellipse fill="#DE582F" cx="484.821" cy="715.715" rx="137.857" ry="130"/>
<g>
	<path fill="#28A532" d="M577.279,503.149c1.99-0.544,4.023-0.872,6.062-1.14c2.041-0.277,4.094-0.422,6.151-0.515
		c4.116-0.164,8.249,0.001,12.364,0.444c8.224,0.908,16.389,2.973,24.096,6.272c7.7,3.29,14.934,7.868,21.032,13.64
		c6.083,5.764,11.041,12.712,13.961,20.402c-5.73-5.876-11.582-11.115-17.951-15.54c-6.342-4.445-13.113-8.106-20.195-11.152
		c-7.084-3.041-14.474-5.467-22.071-7.456C593.119,506.115,585.352,504.507,577.279,503.149z"/>
</g>
<g>
	<path fill="#28A532" d="M587.536,553.577c0.273-2.045,0.764-4.046,1.312-6.027c0.539-1.988,1.205-3.935,1.922-5.866
		c1.451-3.854,3.214-7.597,5.225-11.215c4.039-7.221,9.12-13.938,15.162-19.751c6.029-5.81,13.063-10.689,20.754-14.058
		c7.679-3.357,16.01-5.217,24.229-4.911c-7.645,2.989-14.748,6.337-21.305,10.48c-6.564,4.108-12.574,8.92-18.138,14.256
		c-5.561,5.341-10.673,11.201-15.464,17.425C596.438,540.143,591.93,546.671,587.536,553.577z"/>
</g>
<path fill="#65B42D" d="M505.638,441.751c0,0,10.54-81.179,49.54-61.179c-30.555,7.456-46.754,69.742-46.754,69.742L505.638,441.751
	z"/>
<path fill="#65B42D" d="M483.693,386.063c0,0-66.177-48.185-78.484-6.119c26.428-17.051,82.783,14.031,82.783,14.031
	L483.693,386.063z"/>
<path fill="#65B42D" d="M444.213,260.792c0,0-57.909-42.165-68.68-5.354c23.127-14.921,72.441,12.278,72.441,12.278L444.213,260.792
	z"/>
<path fill="#65B42D" d="M456.899,328.84c0,0-1.356-81.849,40.134-67.722c-29.148,11.812-36.134,75.791-36.134,75.791L456.899,328.84
	z"/>
<path fill="#65B42D" d="M472.742,180.381c0,0,39.938-38.424,52.074-11.346c-19.299-8.998-54.228,17.05-54.228,17.05L472.742,180.381
	z"/>
<path fill="#65B42D" d="M477.865,167.842c0,0-23.462-38.025-38.378-19.322c16.876-3.147,38.914,24.208,38.914,24.208
	L477.865,167.842z"/>
<path fill="#65B42D" d="M510.185,454.806c0,0-52.534-62.779-74.664-24.947c29.771-10.142,76.919,33.666,76.919,33.666
	L510.185,454.806z"/>
<path fill="#65B42D" d="M522.463,497.14c0,0-35.359-33.056-39.656-13.324c12.501-5.206,42.168,17.897,42.168,17.897L522.463,497.14z
	"/>
<g>
	<path fill="#28A532" d="M453.63,607.129c3.396,0.275,6.69,1.124,9.911,2.158c3.217,1.057,6.344,2.393,9.37,3.947
		c6.037,3.13,11.666,7.182,16.535,12.078c4.867,4.885,8.95,10.653,11.736,16.988c2.766,6.328,4.281,13.211,3.827,19.984
		c-2.857-6.137-5.8-11.779-9.347-16.969c-3.508-5.196-7.508-9.942-11.893-14.369c-4.388-4.423-9.162-8.521-14.214-12.417
		C464.5,614.615,459.211,610.92,453.63,607.129z"/>
</g>
<g>
	<path fill="#28A532" d="M445.988,648.429c1.576-3.021,3.641-5.724,5.847-8.288c2.226-2.552,4.674-4.911,7.285-7.092
		c5.233-4.342,11.158-7.947,17.564-10.525c6.395-2.58,13.299-4.095,20.219-4.193c6.905-0.081,13.835,1.203,19.896,4.261
		c-6.765,0.241-13.108,0.752-19.269,1.998c-6.153,1.207-12.082,3.042-17.867,5.356c-5.783,2.319-11.416,5.12-16.973,8.256
		C457.117,641.334,451.653,644.766,445.988,648.429z"/>
</g>
<path fill="#939999" d="M234.771,674.211c0,0,31-51.707,41-46.354s-6-42.143-6-42.143l-28-7.504l-25,20.065L234.771,674.211z"/>
<path fill="#F6DF97" d="M236.511,582.434l-52.739-234.223c0,0,5-10,10-5s54.144,236.646,54.144,236.646v24.688L236.511,582.434z"/>
</svg>
