<?xml version="1.0" encoding="utf-8"?>
<!-- Generator: Adobe Illustrator 15.0.0, SVG Export Plug-In . SVG Version: 6.00 Build 0)  -->
<!DOCTYPE svg PUBLIC "-//W3C//DTD SVG 1.1//EN" "http://www.w3.org/Graphics/SVG/1.1/DTD/svg11.dtd">
<svg version="1.1" id="Layer_1" xmlns="http://www.w3.org/2000/svg" xmlns:xlink="http://www.w3.org/1999/xlink" x="0px" y="0px"
	 width="1000px" height="1000px" viewBox="0 0 1000 1000" enable-background="new 0 0 1000 1000" xml:space="preserve">
<circle fill="#8CF2D5" cx="500" cy="499.75" r="447.895"/>
<path fill="#272A7F" d="M500.75,0c-276.143,0-500,223.857-500,500s223.857,500,500,500s500-223.857,500-500S776.893,0,500.75,0z
	 M500,947.917C252.622,947.917,52.083,747.378,52.083,500C52.083,252.623,252.622,52.083,500,52.083S947.916,252.623,947.916,500
	C947.916,747.378,747.377,947.917,500,947.917z"/>
<circle fill="#3D3D3D" cx="319.812" cy="653.5" r="107.812"/>
<circle fill="#3D3D3D" cx="658.875" cy="573.812" r="96.875"/>
<polygon fill="#3D3D3D" points="426.889,640.905 426.889,314.438 658.875,244.125 671.375,573.812 755.75,573.812 727.625,169.125 
	312,281.625 344.812,653.5 "/>
<circle opacity="0" fill="#676869" cx="500" cy="499.75" r="447.895"/>
<path opacity="0.45" fill="#262626" d="M500.75,0c-276.143,0-500,223.857-500,500s223.857,500,500,500s500-223.857,500-500
	S776.893,0,500.75,0z M500,947.917C252.622,947.917,52.083,747.378,52.083,500C52.083,252.623,252.622,52.083,500,52.083
	S947.916,252.623,947.916,500C947.916,747.378,747.377,947.917,500,947.917z"/>
<path opacity="0.75" fill="#30DD17" d="M172.25,606.625c17.258-31.792,89.062-164.062,89.062-164.062s184.375,57.812,225,173.438
	c6.25-68.75,106.25-404.688,176.562-454.688c82.812,56.25,162.5,123.438,162.5,123.438S554.75,541,498.5,831.625
	C414.125,755.062,400.375,587.875,172.25,606.625z"/>
</svg>
