<?xml version="1.0" encoding="utf-8"?>
<!-- Generator: Adobe Illustrator 15.0.0, SVG Export Plug-In . SVG Version: 6.00 Build 0)  -->
<!DOCTYPE svg PUBLIC "-//W3C//DTD SVG 1.1//EN" "http://www.w3.org/Graphics/SVG/1.1/DTD/svg11.dtd">
<svg version="1.1" id="Layer_1" xmlns="http://www.w3.org/2000/svg" xmlns:xlink="http://www.w3.org/1999/xlink" x="0px" y="0px"
	 width="1000px" height="1000px" viewBox="0 0 1000 1000" enable-background="new 0 0 1000 1000" xml:space="preserve">
<circle fill="#8FCBEC" cx="500" cy="499.75" r="447.895"/>
<path fill="#5F78BA" d="M500.75,0c-276.143,0-500,223.857-500,500s223.857,500,500,500s500-223.857,500-500S776.893,0,500.75,0z
	 M500,947.917C252.622,947.917,52.083,747.378,52.083,500C52.083,252.623,252.622,52.083,500,52.083S947.916,252.623,947.916,500
	C947.916,747.378,747.377,947.917,500,947.917z"/>
<path fill="#729810" d="M-378.625,791"/>
<polygon fill="#D2D3D3" points="239.125,285.938 312.25,196.875 636,196.875 636,746.875 239.125,746.875 "/>
<polygon fill="#FFFFFF" points="363.562,330.062 436.688,241 760.438,241 760.438,791 363.562,791 "/>
<line fill="none" stroke="#B8B8B8" stroke-width="10" stroke-miterlimit="10" x1="402.625" y1="366" x2="722.938" y2="366"/>
<line fill="none" stroke="#B8B8B8" stroke-width="10" stroke-miterlimit="10" x1="402.625" y1="401.938" x2="722.938" y2="401.938"/>
<line fill="none" stroke="#B8B8B8" stroke-width="10" stroke-miterlimit="10" x1="402.625" y1="435.938" x2="722.938" y2="435.938"/>
<line fill="none" stroke="#B8B8B8" stroke-width="10" stroke-miterlimit="10" x1="402.625" y1="471.875" x2="722.938" y2="471.875"/>
<line fill="none" stroke="#B8B8B8" stroke-width="10" stroke-miterlimit="10" x1="402.625" y1="517.938" x2="722.938" y2="517.938"/>
<line fill="none" stroke="#B8B8B8" stroke-width="10" stroke-miterlimit="10" x1="402.625" y1="553.875" x2="722.938" y2="553.875"/>
<line fill="none" stroke="#B8B8B8" stroke-width="10" stroke-miterlimit="10" x1="402.625" y1="587.875" x2="722.938" y2="587.875"/>
<line fill="none" stroke="#B8B8B8" stroke-width="10" stroke-miterlimit="10" x1="402.625" y1="623.812" x2="722.938" y2="623.812"/>
<line fill="none" stroke="#B8B8B8" stroke-width="10" stroke-miterlimit="10" x1="402.625" y1="659.75" x2="722.938" y2="659.75"/>
<line fill="none" stroke="#B8B8B8" stroke-width="10" stroke-miterlimit="10" x1="402.625" y1="695.688" x2="722.938" y2="695.688"/>
<circle opacity="0" fill="#67696A" cx="500" cy="499.75" r="447.895"/>
<path opacity="0.45" fill="#262726" d="M500.75,0c-276.143,0-500,223.857-500,500s223.857,500,500,500s500-223.857,500-500
	S776.893,0,500.75,0z M500,947.917C252.622,947.917,52.083,747.378,52.083,500C52.083,252.623,252.622,52.083,500,52.083
	S947.916,252.623,947.916,500C947.916,747.378,747.377,947.917,500,947.917z"/>
<path opacity="0.75" fill="#53B134" d="M172.25,606.625c17.258-31.792,89.062-164.062,89.062-164.062s184.375,57.812,225,173.438
	c6.25-68.75,106.25-404.688,176.562-454.688c82.812,56.25,162.5,123.438,162.5,123.438S554.75,541,498.5,831.625
	C414.125,755.062,400.375,587.875,172.25,606.625z"/>
</svg>
