<?xml version="1.0" encoding="utf-8"?>
<!-- Generator: Adobe Illustrator 15.0.0, SVG Export Plug-In . SVG Version: 6.00 Build 0)  -->
<!DOCTYPE svg PUBLIC "-//W3C//DTD SVG 1.1//EN" "http://www.w3.org/Graphics/SVG/1.1/DTD/svg11.dtd">
<svg version="1.1" id="Layer_1" xmlns="http://www.w3.org/2000/svg" xmlns:xlink="http://www.w3.org/1999/xlink" x="0px" y="0px"
	 width="1000px" height="1000px" viewBox="0 0 1000 1000" enable-background="new 0 0 1000 1000" xml:space="preserve">
<circle fill="#F9DF9A" cx="500" cy="499.75" r="447.895"/>
<g>
	<path fill="#CB73A4" d="M241.688,223.812c1.562-31.25,53.125-28.125,73.438-32.812c39.062-7.812,60.938-40.625,95.312-57.812
		c32.812-18.75,67.188-10.938,103.125-14.062C552.625,116,577.625,97.25,612,83.188c17.188-7.812,48.438-20.312,65.625-18.75
		c28.125,3.125,67.188,43.75,92.188,57.812c14.062,7.812,64.062,25,71.875,37.5c17.188,32.812-42.188,37.5-57.812,42.188
		c-21.875,6.25-21.875,18.75-31.25,35.938c-32.812,68.75-171.875,51.562-237.5,51.562c-87.5,0-214.062,10.938-275-68.75"/>
</g>
<polyline fill="#F8F0DF" points="241.156,489.438 241.156,223.812 266.688,241 291.688,223.812 313.562,239.438 332.312,223.812 
	352.625,241 363.562,223.812 377.625,237.875 397.938,223.812 412,239.438 444.812,223.812 454.188,239.438 483.875,223.812 
	507.312,242.562 522.938,223.812 543.25,239.438 572.938,223.812 593.25,247.25 621.375,223.812 640.125,247.25 660.438,223.812 
	679.188,248.812 702.625,223.812 713.562,239.438 740.125,223.812 760.344,245.688 760.344,489.438 "/>
<line fill="none" stroke="#F8DCA2" stroke-width="9" stroke-miterlimit="10" x1="321.375" y1="298.812" x2="321.375" y2="499.75"/>
<line fill="none" stroke="#F8DCA2" stroke-width="9" stroke-miterlimit="10" x1="349.5" y1="373.812" x2="349.5" y2="494.125"/>
<line fill="none" stroke="#F8DCA2" stroke-width="9" stroke-miterlimit="10" x1="394.812" y1="291" x2="394.812" y2="494.125"/>
<line fill="none" stroke="#F8DCA2" stroke-width="9" stroke-miterlimit="10" x1="430.75" y1="373.812" x2="430.75" y2="491"/>
<line fill="none" stroke="#F8DCA2" stroke-width="9" stroke-miterlimit="10" x1="471.375" y1="275.375" x2="471.375" y2="499.75"/>
<line fill="none" stroke="#F8DCA2" stroke-width="9" stroke-miterlimit="10" x1="500.75" y1="419.125" x2="500.75" y2="500"/>
<line fill="none" stroke="#F8DCA2" stroke-width="9" stroke-miterlimit="10" x1="554.188" y1="298.812" x2="554.188" y2="500"/>
<line fill="none" stroke="#F8DCA2" stroke-width="9" stroke-miterlimit="10" x1="588.562" y1="356.625" x2="588.562" y2="494.125"/>
<line fill="none" stroke="#F8DCA2" stroke-width="9" stroke-miterlimit="10" x1="637" y1="419.125" x2="637" y2="494.125"/>
<line fill="none" stroke="#F8DCA2" stroke-width="9" stroke-miterlimit="10" x1="685.438" y1="298.812" x2="685.438" y2="494.125"/>
<line fill="none" stroke="#F8DCA2" stroke-width="9" stroke-miterlimit="10" x1="716.688" y1="356.625" x2="716.688" y2="491"/>
<line fill="none" stroke="#F8DCA2" stroke-width="9" stroke-miterlimit="10" x1="271.375" y1="333.188" x2="271.375" y2="500"/>
<g>
	<path fill="#AF7E10" d="M447.844,956.625h104.688c0,0,0-71.875,0-204.688s207.812-101.562,207.812-101.562V553.5H241.156v96.875
		c0,0,207.812-31.25,207.812,101.562s0,204.688,0,204.688h104.688"/>
	<rect x="241.156" y="489.438" fill="#AF7E10" width="519.188" height="64.062"/>
</g>
<path fill="#0E9191" d="M500.75,0c-276.143,0-500,223.857-500,500s223.857,500,500,500s500-223.857,500-500S776.893,0,500.75,0z
	 M500,947.917C252.622,947.917,52.083,747.378,52.083,500C52.083,252.623,252.622,52.083,500,52.083S947.916,252.623,947.916,500
	C947.916,747.378,747.377,947.917,500,947.917z"/>
<rect x="241.156" y="521.469" fill="#FAEDCB" width="519.188" height="71.094"/>
<circle opacity="0" fill="#67696A" cx="500" cy="499.75" r="447.895"/>
<path opacity="0.45" fill="#262726" d="M500.75,0c-276.143,0-500,223.857-500,500s223.857,500,500,500s500-223.857,500-500
	S776.893,0,500.75,0z M500,947.917C252.622,947.917,52.083,747.378,52.083,500C52.083,252.623,252.622,52.083,500,52.083
	S947.916,252.623,947.916,500C947.916,747.378,747.377,947.917,500,947.917z"/>
<path opacity="0.75" fill="#53B134" d="M172.25,606.625c17.258-31.792,89.062-164.062,89.062-164.062s184.375,57.812,225,173.438
	c6.25-68.75,106.25-404.688,176.562-454.688c82.812,56.25,162.5,123.438,162.5,123.438S554.75,541,498.5,831.625
	C414.125,755.062,400.375,587.875,172.25,606.625z"/>
</svg>
